<?xml version="1.0" encoding="utf-8"?>
<!-- Generator: Adobe Illustrator 28.1.0, SVG Export Plug-In . SVG Version: 6.00 Build 0)  -->
<svg version="1.1" id="Capa_1" xmlns="http://www.w3.org/2000/svg" xmlns:xlink="http://www.w3.org/1999/xlink" x="0px" y="0px"
	 viewBox="0 0 1200 231.8" style="enable-background:new 0 0 1200 231.8;" xml:space="preserve">
<style type="text/css">
	.st0{fill:#FFFFFF;}
	.st1{fill:#F9AB6F;}
</style>
<image style="overflow:visible;" width="512" height="512" xlink:href="19F9AFAA.jpg"  transform="matrix(1 0 0 1 1398.2737 -673.4379)">
</image>
<g>
	
		<text transform="matrix(1 0 0 1 1524.9146 16.3091)" style="fill:#0A161F; font-family:'Barlow-Regular'; font-size:28.9608px; letter-spacing:8;">VITAL</text>
</g>
<g>
	
		<text transform="matrix(1 0 0 1 1638.553 16.1335)" class="st1" style="font-family:'CocoSharpL-Light'; font-size:35px; letter-spacing:2;">pet</text>
</g>
<g>
	<g>
		<path class="st0" d="M69.3,173.3L27.5,43.4c-0.1-0.3-0.2-0.6-0.2-1c0-0.5,0.2-1,0.7-1.3c0.4-0.4,1-0.6,1.6-0.6h9.3
			c1.4,0,2.3,0.7,2.7,2.1l35.1,112c0.1,0.5,0.3,0.8,0.6,0.8c0.3,0,0.4-0.3,0.6-0.8l35.1-112c0.4-1.4,1.3-2.1,2.7-2.1h9.1
			c0.9,0,1.5,0.3,1.9,0.8c0.4,0.5,0.4,1.2,0.2,2.1L84.5,173.3c-0.4,1.4-1.3,2.1-2.7,2.1H72C70.6,175.5,69.7,174.8,69.3,173.3z"/>
		<path class="st0" d="M209.6,172.9V43c0-1.7,0.8-2.5,2.5-2.5h8.7c1.7,0,2.5,0.8,2.5,2.5v129.9c0,1.7-0.8,2.5-2.5,2.5h-8.7
			C210.5,175.5,209.6,174.6,209.6,172.9z"/>
		<path class="st0" d="M400.5,43v7.1c0,1.7-0.8,2.5-2.5,2.5h-37c-0.6,0-1,0.3-1,1v119.3c0,1.7-0.8,2.5-2.5,2.5h-8.7
			c-1.7,0-2.5-0.8-2.5-2.5V53.6c0-0.6-0.3-1-1-1h-35.5c-1.7,0-2.5-0.8-2.5-2.5V43c0-1.7,0.8-2.5,2.5-2.5H398
			C399.7,40.5,400.5,41.3,400.5,43z"/>
		<path class="st0" d="M551.4,173.3l-7.7-23.5c-0.3-0.5-0.6-0.8-1-0.8h-57.4c-0.4,0-0.7,0.3-1,0.8l-7.5,23.5
			c-0.4,1.4-1.3,2.1-2.7,2.1h-9.3c-0.9,0-1.5-0.3-1.9-0.8c-0.4-0.5-0.5-1.2-0.2-2.1l42.4-129.9c0.4-1.4,1.3-2.1,2.7-2.1h12.3
			c1.4,0,2.3,0.7,2.7,2.1l42.6,129.9c0.1,0.3,0.2,0.6,0.2,1c0,0.5-0.2,1-0.7,1.4s-1,0.6-1.6,0.6h-9.3
			C552.7,175.5,551.8,174.8,551.4,173.3z M489.4,137.9h49.5c0.8,0,1-0.4,0.8-1.2l-25.1-78.8c-0.1-0.5-0.3-0.8-0.6-0.8
			s-0.5,0.3-0.6,0.8l-24.9,78.8C488.5,137.5,488.7,137.9,489.4,137.9z"/>
		<path class="st0" d="M648.4,172.9V43c0-1.7,0.8-2.5,2.5-2.5h8.7c1.7,0,2.5,0.8,2.5,2.5v119.5c0,0.6,0.3,1,1,1h67.3
			c1.7,0,2.5,0.8,2.5,2.5v6.9c0,1.7-0.8,2.5-2.5,2.5h-79.4C649.2,175.5,648.4,174.6,648.4,172.9z"/>
	</g>
</g>
<g>
	<g>
		<path class="st1" d="M920.8,111c0,37.1-26.9,65.9-61.4,65.9c-23,0-41-12.9-51-31.5v70.1h-11.6V47.3h11.5v29.4
			c9.9-18.6,28-31.8,51.1-31.8C893.7,44.9,920.8,74,920.8,111z M909.2,111.1c0-31-21.8-55-50.3-55c-28.9,0-51.1,24-51.1,55
			c0,31.1,22.3,54.6,51.1,54.6C887.4,165.8,909.2,142.2,909.2,111.1z"/>
		<path class="st1" d="M1075.7,111c0,1.4,0,2.9-0.1,4.5H969.8c2.1,29.5,24.1,50.6,51.8,50.6c16.7,0,30.4-6.4,40.5-16.4l6.5,8.4
			c-12.1,11.8-28.1,19.1-47.5,19.1c-35.3,0-62.9-29.1-62.9-65.9c0-37,25-66.4,59.1-66.4C1053.6,44.9,1075.7,73.3,1075.7,111z
			 M1064.2,104.7c-2.2-28.8-19.5-48.8-46.5-48.8c-25.7,0-45.2,20.5-47.8,48.8H1064.2z"/>
		<path class="st1" d="M1127.6,174.3V58.4h-23.1V47.3h23V17.9l11.8-1.7v31.1h33.4v11.1h-33.4v115.9H1127.6z"/>
	</g>
</g>
</svg>
